Genre:Comedy | Romance
Language:English
IMDb:http://www.imdb.com/title/tt1564367/
Source:DVD5/AUDIO:RX.Thanks!
Subtitles:Romana


Format : MPEG-4
Format profile : Base Media
Codec ID : isom
File size : 940 MiB
Duration : 1h 51mn
Overall bit rate : 1 175 Kbps


Video
Format profile : High@L4.1
Format settings, CABAC : Yes
Format settings, ReFrames : 3 frames
Codec ID : avc1
Codec ID/Info : Advanced Video Coding
Duration : 1h 51mn
Bit rate mode : Variable
Bit rate : 935 Kbps
Maximum bit rate : 4 363 Kbps
Width : 720 pixels
Height : 400 pixels
Display aspect ratio : 16:9
Frame rate mode : Constant
Frame rate : 25.000 fps
Color space : YUV
Chroma subsampling : 4:2:0
Bit depth : 8 bits
Scan type : Progressive
Bits/(Pixel*Frame) : 0.130
Stream size : 742 MiB (79%)
Writing library : x264 


Audio
ID : 2
Format : AAC
Format/Info : Advanced Audio Codec
Format version : Version 4
Format profile : LC
Format settings, SBR : No
Codec ID : 40
Duration : 1h 51mn
Bit rate mode : Variable
Bit rate : 244 Kbps
Maximum bit rate : 311 Kbps
Channel(s) : 2 channels
Channel positions : Front: L R
Sampling rate : 44.1 KHz
Stream size : 195 MiB (21%)



Plot:
On a weekend trip to Hawaii, a plastic surgeon convinces his loyal assistant
to pose as his soon-to-be-divorced wife in order to cover up a careless lie
he told to his much-younger girlfriend.